<svg width="120" height="30" viewBox="0 0 120 30" fill="none" xmlns="http://www.w3.org/2000/svg">
<path d="M19.4238 29.3731C19.3608 29.3798 19.3041 29.3667 19.2537 29.334C19.2159 29.2873 19.197 29.2323 19.197 29.1689V16.3218C19.197 16.2585 19.2159 16.2058 19.2537 16.1638C19.3041 16.1078 19.3608 16.0765 19.4238 16.0699L22.1077 15.7878C22.1707 15.7812 22.2211 15.8013 22.2589 15.848C22.3093 15.8807 22.3345 15.9287 22.3345 15.9921V26.2735C22.3345 26.3369 22.366 26.3653 22.429 26.3586L26.2847 25.9534C26.3477 25.9468 26.3981 25.9668 26.4359 26.0135C26.4863 26.0462 26.5115 26.0943 26.5115 26.1576V28.4001C26.5115 28.4635 26.4863 28.5232 26.4359 28.5791C26.3981 28.6211 26.3477 28.6454 26.2847 28.652L19.4238 29.3731Z" fill="white"/>
<path d="M35.1967 23.4393C35.1967 23.5027 35.1715 23.5623 35.1211 23.6183C35.0833 23.6603 35.0329 23.6846 34.9699 23.6912L30.8496 24.1243C30.7866 24.1309 30.7551 24.1659 30.7551 24.2292V24.7994C30.7551 25.0528 30.8118 25.2495 30.9252 25.3896C31.0512 25.5284 31.215 25.5872 31.4166 25.566C31.593 25.5475 31.7379 25.4689 31.8514 25.3303C31.9648 25.1917 32.0404 25.0254 32.0782 24.8313C32.0908 24.6907 32.1727 24.6124 32.3239 24.5965L34.9321 24.4744C34.9951 24.4677 35.0455 24.4878 35.0833 24.5345C35.1337 24.5672 35.1526 24.6222 35.14 24.6996C35.0266 26.8273 33.7855 28.0157 31.4166 28.2647C30.2196 28.3905 29.2872 28.2034 28.6194 27.7035C27.9515 27.1909 27.6176 26.4151 27.6176 25.3762V21.8223C27.6176 20.8341 27.9515 20.0071 28.6194 19.3415C29.2998 18.6618 30.2322 18.2597 31.4166 18.1352C32.6011 18.0107 33.5272 18.2111 34.195 18.7364C34.8628 19.2617 35.1967 20.0248 35.1967 21.0257V23.4393ZM31.4166 20.8339C31.215 20.8551 31.0512 20.9483 30.9252 21.1136C30.8118 21.2775 30.7551 21.4862 30.7551 21.7396V22.3288C30.7551 22.3921 30.7866 22.4205 30.8496 22.4139L31.9648 22.2966C32.0278 22.29 32.0593 22.255 32.0593 22.1917V21.6025C32.0593 21.3618 31.9963 21.1721 31.8703 21.0333C31.7568 20.8805 31.6056 20.814 31.4166 20.8339Z" fill="white"/>
<path d="M38.4606 27.3723C38.322 27.3869 38.2338 27.3328 38.196 27.2101L35.928 18.0412V17.9651C35.928 17.8511 35.9973 17.7868 36.1359 17.7723L39.0654 17.4643C39.204 17.4498 39.2796 17.5115 39.2922 17.6496L39.916 22.3161C39.916 22.3542 39.9349 22.3712 39.9727 22.3672C40.0105 22.3632 40.0294 22.3422 40.0294 22.3042L40.6531 17.5065C40.6657 17.3658 40.7413 17.2882 40.8799 17.2736L43.8284 17.0017C44.0048 16.9832 44.0741 17.0583 44.0363 17.227L41.7682 26.8346C41.7304 26.9653 41.6422 27.0379 41.5036 27.0525L38.4606 27.3723Z" fill="white"/>
<path d="M52.3246 21.6391C52.3246 21.7025 52.2994 21.7621 52.249 21.8181C52.2112 21.8601 52.1608 21.8844 52.0978 21.891L47.9775 22.3241C47.9145 22.3307 47.883 22.3657 47.883 22.429V22.9992C47.883 23.2525 47.9397 23.4493 48.0531 23.5894C48.1791 23.7282 48.3429 23.787 48.5445 23.7658C48.7209 23.7473 48.8658 23.6687 48.9792 23.5301C49.0926 23.3915 49.1682 23.2252 49.206 23.0311C49.2186 22.8904 49.3005 22.8122 49.4517 22.7963L52.06 22.6742C52.123 22.6675 52.1734 22.6876 52.2112 22.7343C52.2616 22.767 52.2805 22.822 52.2679 22.8994C52.1545 25.0271 50.9133 26.2155 48.5445 26.4645C47.3474 26.5903 46.415 26.4032 45.7472 25.9033C45.0794 25.3907 44.7455 24.6149 44.7455 23.576V20.0221C44.7455 19.0339 45.0794 18.2069 45.7472 17.5412C46.4276 16.8616 47.36 16.4595 48.5445 16.335C49.7289 16.2105 50.655 16.4109 51.3229 16.9362C51.9907 17.4615 52.3246 18.2246 52.3246 19.2255V21.6391ZM48.5445 19.0337C48.3429 19.0549 48.1791 19.1481 48.0531 19.3134C47.9397 19.4773 47.883 19.686 47.883 19.9394V20.5286C47.883 20.5919 47.9145 20.6203 47.9775 20.6136L49.0926 20.4964C49.1556 20.4898 49.1871 20.4548 49.1871 20.3915V19.8023C49.1871 19.5616 49.1241 19.3719 48.9981 19.2331C48.8847 19.0803 48.7335 19.0138 48.5445 19.0337Z" fill="white"/>
<path d="M53.8421 25.7556C53.7791 25.7623 53.7224 25.7492 53.672 25.7165C53.6342 25.6698 53.6153 25.6148 53.6153 25.5514V12.7043C53.6153 12.641 53.6342 12.5883 53.672 12.5463C53.7224 12.4903 53.7791 12.459 53.8421 12.4524L56.526 12.1703C56.589 12.1637 56.6394 12.1837 56.6772 12.2305C56.7276 12.2632 56.7528 12.3112 56.7528 12.3745V25.2217C56.7528 25.285 56.7276 25.3447 56.6772 25.4006C56.6394 25.4426 56.589 25.4669 56.526 25.4736L53.8421 25.7556Z" fill="white"/>
<path d="M63.4388 24.747C63.3002 24.7616 63.212 24.7075 63.1742 24.5848L61.889 19.6836C61.8764 19.6343 61.8449 19.6122 61.7945 19.6175L61.511 19.6473C61.448 19.6539 61.4165 19.6889 61.4165 19.7523V24.7315C61.4165 24.7948 61.3913 24.8545 61.3409 24.9105C61.3031 24.9525 61.2527 24.9768 61.1897 24.9834L58.5058 25.2655C58.4428 25.2721 58.3861 25.259 58.3357 25.2263C58.2979 25.1796 58.279 25.1246 58.279 25.0613V12.2141C58.279 12.1508 58.2979 12.0981 58.3357 12.0561C58.3861 12.0002 58.4428 11.9689 58.5058 11.9622L62.5694 11.5351C63.3002 11.4583 63.9491 11.5675 64.5161 11.8627C65.0832 12.1451 65.5179 12.5872 65.8203 13.1889C66.1353 13.7766 66.2928 14.4696 66.2928 15.2678C66.2928 15.9773 66.1605 16.631 65.8959 17.229C65.6439 17.8129 65.2848 18.3005 64.8185 18.6915C64.7933 18.7069 64.7744 18.7278 64.7618 18.7545C64.7492 18.7685 64.7492 18.7875 64.7618 18.8115L66.3873 24.171L66.4062 24.2451C66.4062 24.3718 66.3369 24.4424 66.1983 24.457L63.4388 24.747ZM61.511 14.345C61.448 14.3517 61.4165 14.3866 61.4165 14.45V17.1486C61.4165 17.212 61.448 17.2404 61.511 17.2337L62.0402 17.1781C62.3804 17.1424 62.6513 16.9872 62.8529 16.7126C63.0545 16.438 63.1553 16.079 63.1553 15.6356C63.1553 15.1668 63.0545 14.8163 62.8529 14.5841C62.6513 14.3519 62.3804 14.2537 62.0402 14.2894L61.511 14.345Z" fill="white"/>
<path d="M75.1277 19.2424C75.1277 19.3057 75.1025 19.3654 75.0521 19.4214C75.0143 19.4634 74.9639 19.4877 74.9009 19.4943L70.7806 19.9273C70.7176 19.934 70.6861 19.969 70.6861 20.0323V20.6024C70.6861 20.8558 70.7428 21.0526 70.8562 21.1927C70.9822 21.3315 71.146 21.3903 71.3476 21.3691C71.524 21.3506 71.6689 21.272 71.7823 21.1334C71.8958 20.9948 71.9714 20.8284 72.0092 20.6344C72.0218 20.4937 72.1037 20.4154 72.2549 20.3996L74.8631 20.2774C74.9261 20.2708 74.9765 20.2909 75.0143 20.3376C75.0647 20.3703 75.0836 20.4253 75.071 20.5027C74.9576 22.6304 73.7165 23.8188 71.3476 24.0678C70.1506 24.1936 69.2182 24.0065 68.5504 23.5066C67.8825 22.994 67.5486 22.2182 67.5486 21.1793V17.6254C67.5486 16.6372 67.8825 15.8102 68.5504 15.1445C69.2308 14.4649 70.1632 14.0628 71.3476 13.9383C72.5321 13.8138 73.4582 14.0142 74.126 14.5395C74.7938 15.0648 75.1277 15.8279 75.1277 16.8288V19.2424ZM71.3476 16.637C71.146 16.6582 70.9822 16.7514 70.8562 16.9167C70.7428 17.0806 70.6861 17.2893 70.6861 17.5427V18.1318C70.6861 18.1952 70.7176 18.2236 70.7806 18.2169L71.8958 18.0997C71.9588 18.0931 71.9903 18.0581 71.9903 17.9948V17.4056C71.9903 17.1649 71.9273 16.9751 71.8013 16.8364C71.6878 16.6836 71.5366 16.6171 71.3476 16.637Z" fill="white"/>
<path d="M78.1459 23.2012C78.0073 23.2158 77.9254 23.1547 77.9002 23.018L75.859 13.8442V13.7682C75.859 13.6542 75.9283 13.5899 76.0669 13.5753L78.6184 13.3072C78.757 13.2926 78.8326 13.3543 78.8452 13.4924L79.4689 18.178C79.4689 18.216 79.4878 18.233 79.5256 18.229C79.5634 18.225 79.5823 18.2041 79.5823 18.166L80.225 13.3474C80.2376 13.2067 80.3195 13.1284 80.4707 13.1125L82.7387 12.8741C82.8899 12.8582 82.9718 12.9193 82.9844 13.0573L83.6649 17.737C83.6775 17.7863 83.6964 17.8097 83.7216 17.807C83.7594 17.7904 83.7783 17.763 83.7783 17.725L84.402 12.9083C84.4146 12.7676 84.4902 12.69 84.6288 12.6754L87.1425 12.4492C87.3064 12.432 87.3694 12.5078 87.3315 12.6764L85.3092 22.2393C85.284 22.3813 85.2021 22.4596 85.0635 22.4741L82.4552 22.7483C82.304 22.7642 82.2221 22.7031 82.2095 22.5651L81.5858 18.5636C81.5732 18.5143 81.5543 18.4909 81.5291 18.4936C81.5039 18.4962 81.485 18.5235 81.4724 18.5755L80.8865 22.7041C80.8739 22.8448 80.792 22.9231 80.6408 22.939L78.1459 23.2012Z" fill="white"/>
<path d="M91.9653 11.7713C93.1245 11.6495 94.0569 11.8429 94.7626 12.3515C95.4808 12.8588 95.8399 13.5876 95.8399 14.5378V21.1134C95.8399 21.1768 95.8147 21.2365 95.7643 21.2924C95.7265 21.3344 95.6761 21.3587 95.6131 21.3653L92.9292 21.6474C92.8662 21.654 92.8095 21.641 92.7591 21.6083C92.7213 21.5616 92.7024 21.5066 92.7024 21.4432V20.9871C92.7024 20.9491 92.6898 20.9314 92.6646 20.9341C92.6394 20.924 92.6142 20.9394 92.589 20.98C92.1606 21.5952 91.4928 21.9504 90.5855 22.0458C88.8467 22.2285 87.9773 21.3254 87.9773 19.3362C87.9773 18.4873 88.1348 17.8246 88.4498 17.3481C88.7648 16.8715 89.1932 16.5351 89.735 16.3388C90.2894 16.1285 90.9951 15.9783 91.8519 15.8882L92.6079 15.8088C92.6709 15.8021 92.7024 15.7672 92.7024 15.7038V15.2477C92.7024 14.9943 92.6331 14.7989 92.4945 14.6614C92.3559 14.5113 92.1795 14.4475 91.9653 14.47C91.8015 14.4872 91.6629 14.5524 91.5495 14.6657C91.4487 14.765 91.3794 14.9053 91.3416 15.0867C91.329 15.24 91.2534 15.324 91.1148 15.3385L88.3553 15.6096C88.2041 15.6255 88.1285 15.5574 88.1285 15.4054C88.1915 14.3978 88.5695 13.5726 89.2625 12.9296C89.9681 12.2726 90.869 11.8865 91.9653 11.7713ZM91.8519 19.5751C92.0661 19.5526 92.2614 19.4624 92.4378 19.3045C92.6142 19.1339 92.7024 18.9346 92.7024 18.7065V18.0034C92.7024 17.94 92.6709 17.9117 92.6079 17.9183L92.0409 17.9779C91.7889 18.0044 91.581 18.1022 91.4172 18.2715C91.266 18.4394 91.1904 18.6501 91.1904 18.9035C91.1904 19.1442 91.2534 19.3213 91.3794 19.4347C91.5054 19.5482 91.6629 19.595 91.8519 19.5751Z" fill="white"/>
<path d="M101.983 10.7374C102.298 10.7043 102.569 10.7455 102.796 10.861C102.884 10.9278 102.922 11.0188 102.909 11.1342L102.475 13.8595C102.462 14.0002 102.374 14.0602 102.21 14.0394C102.034 14.0072 101.876 13.9984 101.737 14.013C101.523 14.0355 101.322 14.0947 101.133 14.1906C100.906 14.2905 100.717 14.4687 100.566 14.7253C100.427 14.9806 100.358 15.254 100.358 15.5454V20.6196C100.358 20.6829 100.332 20.7426 100.282 20.7986C100.244 20.8406 100.194 20.8649 100.131 20.8715L97.447 21.1536C97.384 21.1602 97.3273 21.1472 97.2769 21.1144C97.2391 21.0677 97.2202 21.0127 97.2202 20.9494V11.5991C97.2202 11.5357 97.2391 11.4831 97.2769 11.4411C97.3273 11.3851 97.384 11.3538 97.447 11.3472L100.131 11.0651C100.194 11.0585 100.244 11.0785 100.282 11.1252C100.332 11.1579 100.358 11.206 100.358 11.2693V11.8775C100.358 11.9282 100.364 11.9592 100.377 11.9705C100.402 11.9679 100.427 11.9462 100.452 11.9056C100.792 11.1983 101.303 10.8089 101.983 10.7374Z" fill="white"/>
<path d="M108.128 6.97477C108.128 6.91142 108.147 6.85876 108.185 6.81678C108.235 6.7608 108.292 6.7295 108.355 6.72288L111.039 6.44079C111.102 6.43417 111.152 6.45421 111.19 6.50092C111.24 6.53363 111.266 6.58166 111.266 6.64501V19.4921C111.266 19.5555 111.24 19.6151 111.19 19.6711C111.152 19.7131 111.102 19.7374 111.039 19.744L108.355 20.0261C108.292 20.0327 108.235 20.0197 108.185 19.987C108.147 19.9403 108.128 19.8852 108.128 19.8219V19.4418C108.128 19.4038 108.116 19.3861 108.09 19.3888C108.065 19.3787 108.04 19.3877 108.015 19.4157C107.599 19.9915 107.026 20.3179 106.295 20.3947C104.569 20.5761 103.705 19.5709 103.705 17.379V13.8252C103.705 11.6333 104.569 10.4467 106.295 10.2652C107.026 10.1884 107.599 10.4069 108.015 10.9206C108.04 10.956 108.065 10.9724 108.09 10.9697C108.116 10.9544 108.128 10.9277 108.128 10.8897V6.97477ZM107.467 17.5729C107.668 17.5517 107.826 17.4591 107.939 17.2951C108.065 17.1299 108.128 16.9205 108.128 16.6671V13.6074C108.128 13.354 108.065 13.1579 107.939 13.0191C107.826 12.879 107.668 12.8195 107.467 12.8407C107.278 12.8606 107.126 12.9525 107.013 13.1164C106.9 13.2804 106.843 13.4891 106.843 13.7425V16.8022C106.843 17.0556 106.9 17.2524 107.013 17.3925C107.126 17.5326 107.278 17.5927 107.467 17.5729Z" fill="white"/>
<path d="M116.296 19.3436C115.149 19.4641 114.235 19.2877 113.555 18.8144C112.875 18.3285 112.534 17.6357 112.534 16.7361V16.6221C112.534 16.5588 112.553 16.5061 112.591 16.4641C112.641 16.4081 112.698 16.3768 112.761 16.3702L115.294 16.104C115.357 16.0974 115.407 16.1175 115.445 16.1642C115.495 16.1969 115.521 16.2449 115.521 16.3082V16.3463C115.521 16.5743 115.596 16.7501 115.747 16.8736C115.911 16.983 116.088 17.0278 116.277 17.008C116.453 16.9894 116.592 16.9242 116.692 16.8122C116.793 16.6876 116.844 16.5429 116.844 16.3782C116.844 16.1502 116.737 15.9904 116.522 15.8989C116.308 15.7947 115.968 15.6911 115.502 15.5881L115.086 15.4987C113.46 15.1121 112.648 14.1839 112.648 12.7143C112.648 11.7514 112.969 10.9574 113.612 10.3324C114.254 9.70738 115.111 9.33859 116.182 9.22602C117.278 9.1108 118.154 9.32283 118.809 9.86211C119.465 10.3887 119.792 11.1462 119.792 12.1344C119.792 12.2738 119.717 12.3514 119.565 12.3673L117.108 12.6255C117.045 12.6321 116.989 12.6191 116.938 12.5864C116.9 12.5397 116.881 12.4847 116.881 12.4213V12.2693C116.881 12.0666 116.825 11.9141 116.711 11.812C116.598 11.6973 116.447 11.6498 116.258 11.6697C116.069 11.6895 115.918 11.7751 115.804 11.9264C115.703 12.0637 115.653 12.221 115.653 12.3984C115.653 12.6771 115.779 12.8793 116.031 13.0048C116.283 13.1304 116.636 13.2453 117.089 13.3497C117.644 13.4815 118.123 13.6339 118.526 13.8069C118.929 13.9672 119.276 14.2285 119.565 14.5908C119.855 14.9404 120 15.413 120 16.0085C120 16.9207 119.66 17.6786 118.979 18.2823C118.312 18.8719 117.417 19.2257 116.296 19.3436Z" fill="white"/>
<path fill-rule="evenodd" clip-rule="evenodd" d="M0 8.92605C0 8.83063 0.0759665 8.74424 0.169676 8.73309L20.8702 6.26948C20.9639 6.25833 21.0399 6.32664 21.0399 6.42206V11.4324C21.0399 11.5278 20.9639 11.6142 20.8702 11.6253L19.1734 11.8273C19.0797 11.8384 19.0037 11.7701 19.0037 11.6747V8.73761C19.0037 8.64219 18.9278 8.57388 18.8341 8.58503L2.20579 10.564C2.11208 10.5751 2.03612 10.6615 2.03612 10.757V24.4057C2.03612 24.5011 2.11208 24.5695 2.20579 24.5583L13.4044 23.2255C13.4981 23.2144 13.5741 23.2827 13.5741 23.3781V25.1058C13.5741 25.2012 13.4981 25.2876 13.4044 25.2988L0.169676 26.8739C0.0759667 26.885 0 26.8167 0 26.7213V8.92605Z" fill="white"/>
<path d="M7.95141 21.3569C7.43672 21.4181 6.98538 21.363 6.59739 21.1915C6.2094 21.0199 5.9085 20.7494 5.69471 20.3798C5.48092 20.0101 5.37402 19.5673 5.37402 19.0513V13.2826C5.37402 13.2261 5.38986 13.1799 5.42153 13.1439C5.45321 13.1079 5.49676 13.0865 5.55218 13.0799L7.4288 12.8566C7.48423 12.85 7.52778 12.861 7.55945 12.8894C7.59113 12.9179 7.60696 12.9604 7.60696 13.0168V19.0033C7.60696 19.1403 7.63864 19.2454 7.70198 19.3185C7.76533 19.3916 7.84847 19.422 7.95141 19.4097C8.05434 19.3975 8.13353 19.3478 8.18895 19.2605C8.2523 19.1724 8.28397 19.0598 8.28397 18.9227V12.9362C8.28397 12.8798 8.29981 12.8336 8.33148 12.7976C8.36315 12.7615 8.4067 12.7402 8.46213 12.7336L10.3388 12.5103C10.3942 12.5037 10.4377 12.5146 10.4694 12.5431C10.5011 12.5716 10.5169 12.6141 10.5169 12.6705V18.4393C10.5169 18.9553 10.41 19.4235 10.1962 19.844C9.98243 20.2645 9.68154 20.6067 9.29355 20.8706C8.90555 21.1345 8.45817 21.2965 7.95141 21.3569Z" fill="white"/>
<path d="M14.1804 12.0531C14.6555 11.9965 15.0752 12.0635 15.4394 12.254C15.8116 12.4354 16.1006 12.7195 16.3065 13.1062C16.5123 13.4929 16.6153 13.9523 16.6153 14.4844C16.6153 15.0004 16.5163 15.4677 16.3183 15.8864C16.1283 16.304 15.8591 16.6425 15.5107 16.9016C15.1623 17.1527 14.7585 17.3056 14.2992 17.3602L13.6341 17.4394C13.5866 17.4451 13.5628 17.4721 13.5628 17.5204V20.4109C13.5628 20.4673 13.547 20.5135 13.5153 20.5496C13.4836 20.5856 13.4401 20.6069 13.3846 20.6135L11.508 20.8368C11.4526 20.8434 11.409 20.8325 11.3774 20.804C11.3457 20.7755 11.3299 20.7331 11.3299 20.6766V12.5737C11.3299 12.5173 11.3457 12.4711 11.3774 12.4351C11.409 12.399 11.4526 12.3777 11.508 12.3711L14.1804 12.0531ZM13.7885 15.6674C13.9706 15.6457 14.1131 15.5643 14.2161 15.423C14.3269 15.2728 14.3823 15.0646 14.3823 14.7985C14.3823 14.5325 14.3269 14.3375 14.2161 14.2136C14.1131 14.0808 13.9706 14.0252 13.7885 14.0468L13.6341 14.0652C13.5866 14.0709 13.5628 14.0979 13.5628 14.1463V15.6217C13.5628 15.6701 13.5866 15.6914 13.6341 15.6858L13.7885 15.6674Z" fill="white"/>
<path fill-rule="evenodd" clip-rule="evenodd" d="M2.55054 8.15335C2.55054 5.20767 5.93772 3.30658 8.14123 5.01551L13.2966 9.01373L2.55054 9.98522V8.15335ZM4.60591 7.72617L7.75978 7.44105L6.82254 6.71418C6.00341 6.0789 4.77536 6.69079 4.60591 7.72617Z" fill="white"/>
<path fill-rule="evenodd" clip-rule="evenodd" d="M18.3694 6.72325C18.3694 3.77757 14.9822 2.48892 12.7787 4.59626L7.62334 9.52661L18.3694 8.55512V6.72325ZM16.314 6.6677L13.1601 6.95283L14.0974 6.0565C14.9165 5.27312 16.1446 5.66296 16.314 6.6677Z" fill="white"/>
</svg>
